<mxfile host="app.diagrams.net" modified="2022-11-28T17:29:53.592Z" agent="5.0 (Windows NT 10.0; Win64; x64) AppleWebKit/537.36 (KHTML, like Gecko) Chrome/107.0.0.0 Safari/537.36" etag="6rVpE_2fVDNTsWtp6BCS" version="20.4.2" type="github">
  <diagram name="Page-1" id="e7e014a7-5840-1c2e-5031-d8a46d1fe8dd">
    <mxGraphModel dx="2069" dy="1688" grid="1" gridSize="10" guides="1" tooltips="1" connect="1" arrows="1" fold="1" page="1" pageScale="1" pageWidth="1169" pageHeight="826" background="none" math="0" shadow="0">
      <root>
        <mxCell id="0" />
        <mxCell id="1" parent="0" />
        <mxCell id="R8lPQVLOUjRNBmfxP-ur-41" value="" style="rounded=0;whiteSpace=wrap;html=1;" vertex="1" parent="1">
          <mxGeometry x="420" y="-40" width="330" height="150" as="geometry" />
        </mxCell>
        <mxCell id="R8lPQVLOUjRNBmfxP-ur-42" value="&amp;nbsp;+ startingMenu(myConnecction : SQLiteConnection) : void;&lt;br&gt;&amp;nbsp; &amp;nbsp; &amp;nbsp; &amp;nbsp; &amp;nbsp;+&amp;nbsp; afterLoginMenu(myConnection : SQLiteConnection, currentUserID : int) : void;" style="text;html=1;strokeColor=none;fillColor=none;align=center;verticalAlign=middle;whiteSpace=wrap;rounded=0;" vertex="1" parent="1">
          <mxGeometry x="420" y="-30" width="330" height="60" as="geometry" />
        </mxCell>
        <mxCell id="R8lPQVLOUjRNBmfxP-ur-43" value="" style="rounded=0;whiteSpace=wrap;html=1;" vertex="1" parent="1">
          <mxGeometry x="420" y="-60" width="330" height="30" as="geometry" />
        </mxCell>
        <mxCell id="R8lPQVLOUjRNBmfxP-ur-44" value="Menu" style="text;html=1;strokeColor=none;fillColor=none;align=center;verticalAlign=middle;whiteSpace=wrap;rounded=0;" vertex="1" parent="1">
          <mxGeometry x="470" y="-60" width="220" height="30" as="geometry" />
        </mxCell>
        <mxCell id="R8lPQVLOUjRNBmfxP-ur-45" value="" style="rounded=0;orthogonalLoop=1;jettySize=auto;html=1;endArrow=none;endFill=0;sketch=0;sourcePerimeterSpacing=0;targetPerimeterSpacing=0;" edge="1" target="R8lPQVLOUjRNBmfxP-ur-47" parent="1">
          <mxGeometry relative="1" as="geometry">
            <mxPoint x="750" y="35" as="sourcePoint" />
          </mxGeometry>
        </mxCell>
        <mxCell id="R8lPQVLOUjRNBmfxP-ur-46" value="" style="rounded=0;orthogonalLoop=1;jettySize=auto;html=1;endArrow=halfCircle;endFill=0;entryX=0.5;entryY=0.5;endSize=6;strokeWidth=1;sketch=0;" edge="1" target="R8lPQVLOUjRNBmfxP-ur-47" parent="1">
          <mxGeometry relative="1" as="geometry">
            <mxPoint x="1020" y="35" as="sourcePoint" />
          </mxGeometry>
        </mxCell>
        <mxCell id="R8lPQVLOUjRNBmfxP-ur-47" value="" style="ellipse;whiteSpace=wrap;html=1;align=center;aspect=fixed;resizable=0;points=[];outlineConnect=0;sketch=0;" vertex="1" parent="1">
          <mxGeometry x="765" y="30" width="10" height="10" as="geometry" />
        </mxCell>
        <mxCell id="R8lPQVLOUjRNBmfxP-ur-48" value="" style="rounded=0;whiteSpace=wrap;html=1;" vertex="1" parent="1">
          <mxGeometry x="1015" y="-30" width="330" height="150" as="geometry" />
        </mxCell>
        <mxCell id="R8lPQVLOUjRNBmfxP-ur-49" value="&amp;nbsp;+ startingMenu(myConnecction : SQLiteConnection) : void;&lt;br&gt;&amp;nbsp; &amp;nbsp; &amp;nbsp; &amp;nbsp; &amp;nbsp;+&amp;nbsp; afterLoginMenu(myConnection : SQLiteConnection, currentUserID : int) : void;" style="text;html=1;strokeColor=none;fillColor=none;align=center;verticalAlign=middle;whiteSpace=wrap;rounded=0;" vertex="1" parent="1">
          <mxGeometry x="1010" y="-20" width="340" height="60" as="geometry" />
        </mxCell>
        <mxCell id="R8lPQVLOUjRNBmfxP-ur-50" value="" style="rounded=0;whiteSpace=wrap;html=1;" vertex="1" parent="1">
          <mxGeometry x="1015" y="-50" width="330" height="30" as="geometry" />
        </mxCell>
        <mxCell id="R8lPQVLOUjRNBmfxP-ur-51" value="IMenu" style="text;html=1;strokeColor=none;fillColor=none;align=center;verticalAlign=middle;whiteSpace=wrap;rounded=0;" vertex="1" parent="1">
          <mxGeometry x="1065" y="-50" width="220" height="30" as="geometry" />
        </mxCell>
        <mxCell id="R8lPQVLOUjRNBmfxP-ur-52" value="" style="html=1;" vertex="1" parent="1">
          <mxGeometry x="240" y="390" width="430" height="420" as="geometry" />
        </mxCell>
        <mxCell id="R8lPQVLOUjRNBmfxP-ur-53" value="NoteOperator" style="html=1;" vertex="1" parent="1">
          <mxGeometry x="240" y="350" width="430" height="40" as="geometry" />
        </mxCell>
        <mxCell id="R8lPQVLOUjRNBmfxP-ur-54" value="" style="rounded=0;whiteSpace=wrap;html=1;" vertex="1" parent="1">
          <mxGeometry x="945" y="380" width="435" height="420" as="geometry" />
        </mxCell>
        <mxCell id="R8lPQVLOUjRNBmfxP-ur-55" value="&lt;div&gt;&amp;nbsp; &amp;nbsp;+ ReadTitles(myConnection : SQLiteConnection, _currenAccountID : int) : void&lt;/div&gt;&lt;div&gt;&amp;nbsp; &amp;nbsp; &amp;nbsp; &amp;nbsp; + ReadContent(SQLiteConnection : myConnection, id : int , columnNumber : int, _currentAccountID : int) : void&lt;/div&gt;&lt;div&gt;&amp;nbsp; &amp;nbsp; &amp;nbsp; &amp;nbsp; + EditContent(myConnection : SQLiteConnection : myConnection, _currenAccountID : int) : void&lt;/div&gt;&lt;div&gt;&amp;nbsp; &amp;nbsp;&amp;nbsp;&lt;/div&gt;&amp;nbsp;+addNote(myConnection :&amp;nbsp; SQLiteConnection, _currentAccountID : int) : void&lt;div&gt;&amp;nbsp; &amp;nbsp; &amp;nbsp; &amp;nbsp;&amp;nbsp;&lt;/div&gt;&lt;div&gt;+DeleteNote(SQLiteConnection : myConnection , _currentAccountID) : void&lt;/div&gt;&lt;div&gt;&amp;nbsp; &amp;nbsp; &amp;nbsp; &amp;nbsp; +SetCurrentAccoutnID(_currentAccountID : int) :void&lt;/div&gt;" style="text;html=1;strokeColor=none;fillColor=none;align=center;verticalAlign=middle;whiteSpace=wrap;rounded=0;" vertex="1" parent="1">
          <mxGeometry x="940" y="350" width="440" height="260" as="geometry" />
        </mxCell>
        <mxCell id="R8lPQVLOUjRNBmfxP-ur-56" value="" style="rounded=0;whiteSpace=wrap;html=1;" vertex="1" parent="1">
          <mxGeometry x="945" y="360" width="435" height="30" as="geometry" />
        </mxCell>
        <mxCell id="R8lPQVLOUjRNBmfxP-ur-57" value="INoteOperator" style="text;html=1;strokeColor=none;fillColor=none;align=center;verticalAlign=middle;whiteSpace=wrap;rounded=0;" vertex="1" parent="1">
          <mxGeometry x="1060" y="360" width="220" height="30" as="geometry" />
        </mxCell>
        <mxCell id="R8lPQVLOUjRNBmfxP-ur-63" value="" style="rounded=0;orthogonalLoop=1;jettySize=auto;html=1;endArrow=none;endFill=0;sketch=0;sourcePerimeterSpacing=0;targetPerimeterSpacing=0;" edge="1" target="R8lPQVLOUjRNBmfxP-ur-65" parent="1">
          <mxGeometry relative="1" as="geometry">
            <mxPoint x="670" y="444" as="sourcePoint" />
          </mxGeometry>
        </mxCell>
        <mxCell id="R8lPQVLOUjRNBmfxP-ur-64" value="" style="rounded=0;orthogonalLoop=1;jettySize=auto;html=1;endArrow=halfCircle;endFill=0;entryX=0.5;entryY=0.5;endSize=6;strokeWidth=1;sketch=0;" edge="1" target="R8lPQVLOUjRNBmfxP-ur-65" parent="1">
          <mxGeometry relative="1" as="geometry">
            <mxPoint x="940" y="444" as="sourcePoint" />
          </mxGeometry>
        </mxCell>
        <mxCell id="R8lPQVLOUjRNBmfxP-ur-65" value="" style="ellipse;whiteSpace=wrap;html=1;align=center;aspect=fixed;resizable=0;points=[];outlineConnect=0;sketch=0;" vertex="1" parent="1">
          <mxGeometry x="795" y="439" width="10" height="10" as="geometry" />
        </mxCell>
        <mxCell id="R8lPQVLOUjRNBmfxP-ur-69" value="&lt;div&gt;&amp;nbsp; &amp;nbsp;+ ReadTitles(myConnection : SQLiteConnection, _currenAccountID : int) : void&lt;/div&gt;&lt;div&gt;&amp;nbsp; &amp;nbsp; &amp;nbsp; &amp;nbsp; + ReadContent(SQLiteConnection : myConnection, id : int , columnNumber : int, _currentAccountID : int) : void&lt;/div&gt;&lt;div&gt;&amp;nbsp; &amp;nbsp; &amp;nbsp; &amp;nbsp; + EditContent(myConnection : SQLiteConnection : myConnection, _currenAccountID : int) : void&lt;/div&gt;&lt;div&gt;&amp;nbsp; &amp;nbsp;&amp;nbsp;&lt;/div&gt;&amp;nbsp;+addNote(myConnection :&amp;nbsp; SQLiteConnection, _currentAccountID : int) : void&lt;div&gt;&amp;nbsp; &amp;nbsp; &amp;nbsp; &amp;nbsp;&amp;nbsp;&lt;/div&gt;&lt;div&gt;+DeleteNote(SQLiteConnection : myConnection , _currentAccountID) : void&lt;/div&gt;&lt;div&gt;&amp;nbsp; &amp;nbsp; &amp;nbsp; &amp;nbsp; +SetCurrentAccoutnID(_currentAccountID : int) :void&lt;/div&gt;&lt;div&gt;+GetCurrenyAccountID():int&lt;/div&gt;" style="text;html=1;strokeColor=none;fillColor=none;align=center;verticalAlign=middle;whiteSpace=wrap;rounded=0;" vertex="1" parent="1">
          <mxGeometry x="240" y="500" width="420" height="180" as="geometry" />
        </mxCell>
        <mxCell id="R8lPQVLOUjRNBmfxP-ur-70" value="- _currentAccountID : int" style="rounded=0;whiteSpace=wrap;html=1;" vertex="1" parent="1">
          <mxGeometry x="240" y="390" width="430" height="40" as="geometry" />
        </mxCell>
        <mxCell id="R8lPQVLOUjRNBmfxP-ur-71" value="Text" style="text;html=1;strokeColor=none;fillColor=none;align=center;verticalAlign=middle;whiteSpace=wrap;rounded=0;" vertex="1" parent="1">
          <mxGeometry x="610" y="520" width="60" height="30" as="geometry" />
        </mxCell>
        <mxCell id="R8lPQVLOUjRNBmfxP-ur-72" value="" style="rounded=0;whiteSpace=wrap;html=1;" vertex="1" parent="1">
          <mxGeometry x="1662.5" y="-30" width="380" height="100" as="geometry" />
        </mxCell>
        <mxCell id="R8lPQVLOUjRNBmfxP-ur-73" value="" style="rounded=0;whiteSpace=wrap;html=1;" vertex="1" parent="1">
          <mxGeometry x="1662.5" y="-30" width="380" height="30" as="geometry" />
        </mxCell>
        <mxCell id="R8lPQVLOUjRNBmfxP-ur-74" value="DataBaseConnection" style="text;html=1;strokeColor=none;fillColor=none;align=center;verticalAlign=middle;whiteSpace=wrap;rounded=0;" vertex="1" parent="1">
          <mxGeometry x="1822.5" y="-30" width="60" height="30" as="geometry" />
        </mxCell>
        <mxCell id="R8lPQVLOUjRNBmfxP-ur-75" value="&amp;nbsp;+ CreateConnection(path:string) : SQLiteConnection" style="text;html=1;strokeColor=none;fillColor=none;align=center;verticalAlign=middle;whiteSpace=wrap;rounded=0;" vertex="1" parent="1">
          <mxGeometry x="1662.5" width="380" height="80" as="geometry" />
        </mxCell>
        <mxCell id="R8lPQVLOUjRNBmfxP-ur-76" value="" style="rounded=0;whiteSpace=wrap;html=1;" vertex="1" parent="1">
          <mxGeometry x="355" y="-440" width="440" height="120" as="geometry" />
        </mxCell>
        <mxCell id="R8lPQVLOUjRNBmfxP-ur-78" value="" style="rounded=0;whiteSpace=wrap;html=1;" vertex="1" parent="1">
          <mxGeometry x="355" y="-440" width="445" height="50" as="geometry" />
        </mxCell>
        <mxCell id="R8lPQVLOUjRNBmfxP-ur-80" value="User" style="text;html=1;strokeColor=none;fillColor=none;align=center;verticalAlign=middle;whiteSpace=wrap;rounded=0;" vertex="1" parent="1">
          <mxGeometry x="555" y="-430" width="60" height="30" as="geometry" />
        </mxCell>
        <mxCell id="R8lPQVLOUjRNBmfxP-ur-82" value="+ CreateAccount(myConnection : SQLiteConnection) : void&lt;br&gt;+ LoginInto(myConnection : SQLiteConnection) : void" style="text;html=1;strokeColor=none;fillColor=none;align=center;verticalAlign=middle;whiteSpace=wrap;rounded=0;" vertex="1" parent="1">
          <mxGeometry x="355" y="-390" width="450" height="60" as="geometry" />
        </mxCell>
        <mxCell id="R8lPQVLOUjRNBmfxP-ur-83" value="" style="rounded=0;whiteSpace=wrap;html=1;" vertex="1" parent="1">
          <mxGeometry x="1650" y="240" width="400" height="140" as="geometry" />
        </mxCell>
        <mxCell id="R8lPQVLOUjRNBmfxP-ur-84" value="" style="rounded=0;whiteSpace=wrap;html=1;" vertex="1" parent="1">
          <mxGeometry x="1650" y="240" width="400" height="30" as="geometry" />
        </mxCell>
        <mxCell id="R8lPQVLOUjRNBmfxP-ur-85" value="Program" style="text;html=1;strokeColor=none;fillColor=none;align=center;verticalAlign=middle;whiteSpace=wrap;rounded=0;" vertex="1" parent="1">
          <mxGeometry x="1820" y="240" width="60" height="30" as="geometry" />
        </mxCell>
        <mxCell id="R8lPQVLOUjRNBmfxP-ur-86" value="+ myConnection : SQLiteConnection&lt;br&gt;+ menu : Menu" style="text;html=1;strokeColor=none;fillColor=none;align=center;verticalAlign=middle;whiteSpace=wrap;rounded=0;" vertex="1" parent="1">
          <mxGeometry x="1650" y="270" width="230" height="50" as="geometry" />
        </mxCell>
        <mxCell id="R8lPQVLOUjRNBmfxP-ur-88" value="" style="endArrow=diamondThin;endFill=0;endSize=24;html=1;rounded=0;entryX=0.5;entryY=1;entryDx=0;entryDy=0;" edge="1" parent="1" target="R8lPQVLOUjRNBmfxP-ur-41">
          <mxGeometry width="160" relative="1" as="geometry">
            <mxPoint x="580" y="340" as="sourcePoint" />
            <mxPoint x="650" y="230" as="targetPoint" />
          </mxGeometry>
        </mxCell>
        <mxCell id="R8lPQVLOUjRNBmfxP-ur-89" value="" style="endArrow=diamondThin;endFill=1;endSize=24;html=1;rounded=0;entryX=0;entryY=0.75;entryDx=0;entryDy=0;" edge="1" parent="1" target="R8lPQVLOUjRNBmfxP-ur-86">
          <mxGeometry width="160" relative="1" as="geometry">
            <mxPoint x="1340" y="110" as="sourcePoint" />
            <mxPoint x="1500" y="120" as="targetPoint" />
          </mxGeometry>
        </mxCell>
        <mxCell id="R8lPQVLOUjRNBmfxP-ur-90" value="" style="endArrow=diamondThin;endFill=1;endSize=24;html=1;rounded=0;entryX=0.5;entryY=0;entryDx=0;entryDy=0;exitX=0.5;exitY=1;exitDx=0;exitDy=0;" edge="1" parent="1" source="R8lPQVLOUjRNBmfxP-ur-76" target="R8lPQVLOUjRNBmfxP-ur-44">
          <mxGeometry width="160" relative="1" as="geometry">
            <mxPoint x="560" y="-300" as="sourcePoint" />
            <mxPoint x="720" y="-300" as="targetPoint" />
          </mxGeometry>
        </mxCell>
        <mxCell id="R8lPQVLOUjRNBmfxP-ur-97" value="" style="endArrow=diamondThin;endFill=1;endSize=24;html=1;rounded=0;exitX=0;exitY=0.5;exitDx=0;exitDy=0;entryX=0.951;entryY=0.996;entryDx=0;entryDy=0;entryPerimeter=0;" edge="1" parent="1" source="R8lPQVLOUjRNBmfxP-ur-75" target="R8lPQVLOUjRNBmfxP-ur-49">
          <mxGeometry width="160" relative="1" as="geometry">
            <mxPoint x="1410" as="sourcePoint" />
            <mxPoint x="1350" y="40" as="targetPoint" />
          </mxGeometry>
        </mxCell>
      </root>
    </mxGraphModel>
  </diagram>
</mxfile>
